<?xml version="1.0" encoding="UTF-8" standalone="no"?>
<!-- Created with Inkscape (http://www.inkscape.org/) -->

<svg
   width="462.37894"
   height="255.7494"
   viewBox="0 0 462.37894 255.7494"
   version="1.1"
   id="svg1"
   xml:space="preserve"
   xmlns="http://www.w3.org/2000/svg"
   xmlns:svg="http://www.w3.org/2000/svg"><defs
     id="defs1" /><g
     id="layer4"
     transform="translate(-41.283444,-135.82332)"
     style="display:inline;fill:#556b2f;fill-opacity:1"><path
       style="fill:#556b2f;fill-opacity:1;stroke:none;stroke-width:0.915212"
       d="m 225.91211,211.8988 c 0,0 0.37018,4.20772 3.55984,1.0491 3.18965,-3.15863 3.60861,-9.22064 7.43349,-11.29136 3.82488,-2.07073 8.62591,-4.67938 13.75689,-2.05147 5.13097,2.62793 12.75228,3.09906 14.51177,4.09786 1.7595,0.9988 15.67129,2.33711 18.94433,1.63669 3.27304,-0.7004 13.08206,-2.03015 18.09596,-6.19933 5.01389,-4.16919 11.36931,-9.42556 13.82894,-13.46242 2.45964,-4.03685 7.09837,-13.05656 7.49013,-14.34528 0.39176,-1.28872 4.91482,-21.05901 4.97511,-21.57375 0.0603,-0.51474 -7.71887,5.58837 -19.91326,6.03667 -12.19437,0.44831 -24.01064,-4.2169 -25.63522,-4.39713 -1.62456,-0.18024 -11.53892,-2.06387 -17.93686,-0.21422 -6.39795,1.84966 -10.27428,3.50295 -14.34279,7.31123 -4.06851,3.80828 -6.77348,5.22748 -9.71406,11.48585 -2.94059,6.25838 -3.15648,5.36009 -5.22587,14.11878 -2.0694,8.75868 7.33877,-13.13879 20.01276,-13.91223 12.67399,-0.77345 11.56541,-0.7327 11.56541,-0.7327 l 8.31057,0.2408 c 0,0 8.42104,-0.0172 9.17559,-0.11951 0.75455,-0.10229 16.72663,-0.41923 18.52259,-0.93137 1.79599,-0.51216 4.38626,-0.91999 4.92895,-1.14117 0.54269,-0.22118 3.1589,-1.42874 3.1589,-1.42874 l -2.0304,1.62488 c 0,0 -5.41665,3.78462 -8.32151,4.29733 -2.90487,0.51273 -4.44758,1.5613 -7.41298,1.52004 -2.96542,-0.0412 -10.06887,-0.0503 -11.41127,-0.11223 -1.34241,-0.0619 -11.10712,-0.26727 -13.5029,0.61115 -2.39579,0.8784 -7.68319,0.87126 -11.97765,3.52421 -4.29444,2.65292 -12.1868,6.59537 -15.5519,9.92411 -3.36513,3.32872 -7.22147,7.55321 -8.57338,9.3717 -1.35191,1.81848 -6.26842,11.28231 -6.72118,15.0625 z"
       id="path3" /><path
       style="fill:#556b2f;fill-opacity:1;stroke:none;stroke-width:0.915212"
       d="m 345.29212,368.20326 c 0,0 0.37018,4.20772 3.55984,1.0491 3.18965,-3.15863 3.60861,-9.22064 7.43349,-11.29136 3.82488,-2.07073 8.62591,-4.67938 13.75689,-2.05147 5.13097,2.62793 12.75228,3.09906 14.51177,4.09786 1.7595,0.9988 15.67129,2.33711 18.94433,1.63669 3.27304,-0.7004 13.08206,-2.03015 18.09596,-6.19933 5.01389,-4.16919 11.36931,-9.42556 13.82894,-13.46242 2.45964,-4.03685 7.09837,-13.05656 7.49013,-14.34528 0.39176,-1.28872 4.91482,-21.05901 4.97511,-21.57375 0.0603,-0.51474 -7.71887,5.58837 -19.91326,6.03667 -12.19437,0.44831 -24.01064,-4.2169 -25.63522,-4.39713 -1.62456,-0.18024 -11.53892,-2.06387 -17.93686,-0.21422 -6.39795,1.84966 -10.27428,3.50295 -14.34279,7.31123 -4.06851,3.80828 -6.77348,5.22748 -9.71406,11.48585 -2.94059,6.25838 -3.15648,5.36009 -5.22587,14.11878 -2.0694,8.75868 7.33877,-13.13879 20.01276,-13.91223 12.67399,-0.77345 11.56541,-0.7327 11.56541,-0.7327 l 8.31057,0.2408 c 0,0 8.42104,-0.0172 9.17559,-0.11951 0.75455,-0.10229 16.72663,-0.41923 18.52259,-0.93137 1.79599,-0.51216 4.38626,-0.91999 4.92895,-1.14117 0.54269,-0.22118 3.1589,-1.42874 3.1589,-1.42874 l -2.0304,1.62488 c 0,0 -5.41665,3.78462 -8.32151,4.29733 -2.90487,0.51273 -4.44758,1.5613 -7.41298,1.52004 -2.96542,-0.0412 -10.06887,-0.0503 -11.41127,-0.11223 -1.34241,-0.0619 -11.10712,-0.26727 -13.5029,0.61115 -2.39579,0.8784 -7.68319,0.87126 -11.97765,3.52421 -4.29444,2.65292 -12.1868,6.59537 -15.5519,9.92411 -3.36513,3.32872 -7.22147,7.55321 -8.57338,9.3717 -1.35191,1.81848 -6.26842,11.28231 -6.72118,15.0625 z"
       id="path3-1" /><path
       style="fill:#556b2f;fill-opacity:1;stroke:none;stroke-width:0.915212"
       d="m 394.30518,210.32354 c 0,0 0.37018,4.20772 3.55984,1.0491 3.18965,-3.15863 3.60861,-9.22064 7.43349,-11.29136 3.82488,-2.07073 8.62591,-4.67938 13.75689,-2.05147 5.13097,2.62793 12.75228,3.09906 14.51177,4.09786 1.7595,0.9988 15.67129,2.33711 18.94433,1.63669 3.27304,-0.7004 13.08206,-2.03015 18.09596,-6.19933 5.01389,-4.16919 11.36931,-9.42556 13.82894,-13.46242 2.45964,-4.03685 7.09837,-13.05656 7.49013,-14.34528 0.39176,-1.28872 4.91482,-21.05901 4.97511,-21.57375 0.0603,-0.51474 -7.71887,5.58837 -19.91326,6.03667 -12.19437,0.44831 -24.01064,-4.2169 -25.63522,-4.39713 -1.62456,-0.18024 -11.53892,-2.06387 -17.93686,-0.21422 -6.39795,1.84966 -10.27428,3.50295 -14.34279,7.31123 -4.06851,3.80828 -6.77348,5.22748 -9.71406,11.48585 -2.94059,6.25838 -3.15648,5.36009 -5.22587,14.11878 -2.0694,8.75868 7.33877,-13.13879 20.01276,-13.91223 12.67399,-0.77345 11.56541,-0.7327 11.56541,-0.7327 l 8.31057,0.2408 c 0,0 8.42104,-0.0172 9.17559,-0.11951 0.75455,-0.10229 16.72663,-0.41923 18.52259,-0.93137 1.79599,-0.51216 4.38626,-0.91999 4.92895,-1.14117 0.54269,-0.22118 3.1589,-1.42874 3.1589,-1.42874 l -2.0304,1.62488 c 0,0 -5.41665,3.78462 -8.32151,4.29733 -2.90487,0.51273 -4.44758,1.5613 -7.41298,1.52004 -2.96542,-0.0412 -10.06887,-0.0503 -11.41127,-0.11223 -1.34241,-0.0619 -11.10712,-0.26727 -13.5029,0.61115 -2.39579,0.8784 -7.68319,0.87126 -11.97765,3.52421 -4.29444,2.65292 -12.1868,6.59537 -15.5519,9.92411 -3.36513,3.32872 -7.22147,7.55321 -8.57338,9.3717 -1.35191,1.81848 -6.26842,11.28231 -6.72118,15.0625 z"
       id="path3-42" /><path
       style="fill:#556b2f;fill-opacity:1;stroke:none;stroke-width:0.915212"
       d="m 54.406752,153.5903 c 0,0 -2.896381,3.07457 1.583733,3.35632 4.480115,0.28174 9.286147,-3.43654 13.376175,-1.95693 4.090038,1.47961 9.230951,3.33054 10.680342,8.91016 1.449367,5.57963 6.1656,11.58491 6.589684,13.56318 0.424094,1.97828 8.675784,13.2583 11.375424,15.237 2.69963,1.97871 10.21566,8.42033 16.66362,9.39251 6.44795,0.97217 14.59997,2.22329 19.25053,1.3758 4.65057,-0.84748 14.47168,-3.38105 15.69467,-3.94545 1.22301,-0.5644 18.99627,-10.33339 19.4208,-10.63066 0.42453,-0.29726 -9.30666,-2.04864 -17.75062,-10.85794 -8.44396,-8.80926 -12.81744,-20.73659 -13.76316,-22.06976 -0.94571,-1.33317 -6.13186,-9.99032 -11.76784,-13.53864 -5.63599,-3.54831 -9.44847,-5.34393 -14.99821,-5.85004 -5.54974,-0.50611 -8.40846,-1.58257 -15.03799,0.38301 -6.629546,1.96557 -6.102222,1.20698 -14.019793,5.48589 -7.917569,4.2789 14.692943,-3.25619 23.698673,5.69508 9.00572,8.95126 8.2381,8.15041 8.2381,8.15041 l 5.3466,6.3669 c 0,0 5.61274,6.27783 6.19093,6.77333 0.57815,0.49552 11.43614,12.21354 13.01293,13.21429 1.57682,1.00076 3.60392,2.6641 4.12999,2.92233 0.52606,0.25824 3.16769,1.40913 3.16769,1.40913 l -2.56374,-0.43588 c 0,0 -6.42857,-1.5287 -8.7432,-3.35725 -2.31464,-1.82855 -4.12365,-2.28343 -6.06479,-4.52559 -1.94121,-2.24213 -6.65814,-7.5534 -7.50457,-8.59717 -0.84645,-1.04374 -7.18651,-8.4731 -9.43573,-9.67826 -2.2492,-1.20517 -5.75994,-5.15882 -10.59707,-6.60197 -4.8371,-1.44314 -13.029872,-4.71588 -17.753705,-5.01553 -4.723842,-0.29968 -10.443338,-0.37056 -12.700489,-0.17096 -2.257141,0.19959 -12.594654,2.82104 -15.71898,4.99669 z"
       id="path3-4" /><path
       style="fill:#556b2f;fill-opacity:1;stroke:none;stroke-width:0.915212"
       d="m 163.2708,341.41401 c 0,0 -2.89638,3.07457 1.58373,3.35632 4.48012,0.28174 9.28615,-3.43654 13.37618,-1.95693 4.09004,1.47961 9.23095,3.33054 10.68034,8.91016 1.44937,5.57963 6.1656,11.58491 6.58969,13.56318 0.42409,1.97828 8.67578,13.2583 11.37542,15.237 2.69963,1.97871 10.21566,8.42033 16.66362,9.39251 6.44796,0.97217 14.59998,2.22329 19.25054,1.3758 4.65057,-0.84748 14.47168,-3.38105 15.69467,-3.94545 1.22301,-0.5644 18.99627,-10.33339 19.4208,-10.63066 0.42453,-0.29726 -9.30666,-2.04864 -17.75062,-10.85794 -8.44396,-8.80926 -12.81744,-20.73659 -13.76316,-22.06976 -0.94571,-1.33317 -6.13186,-9.99032 -11.76784,-13.53864 -5.636,-3.54831 -9.44848,-5.34393 -14.99822,-5.85004 -5.54974,-0.50611 -8.40846,-1.58257 -15.03799,0.38301 -6.62954,1.96557 -6.10222,1.20698 -14.01979,5.48589 -7.91757,4.2789 14.69294,-3.25619 23.69867,5.69508 9.00572,8.95126 8.2381,8.15041 8.2381,8.15041 l 5.3466,6.3669 c 0,0 5.61275,6.27783 6.19094,6.77333 0.57815,0.49552 11.43614,12.21354 13.01293,13.21429 1.57682,1.00076 3.60392,2.6641 4.12999,2.92233 0.52606,0.25824 3.16769,1.40913 3.16769,1.40913 l -2.56374,-0.43588 c 0,0 -6.42857,-1.5287 -8.7432,-3.35725 -2.31464,-1.82855 -4.12365,-2.28343 -6.06479,-4.52559 -1.94121,-2.24213 -6.65814,-7.5534 -7.50457,-8.59717 -0.84646,-1.04374 -7.18652,-8.4731 -9.43574,-9.67826 -2.2492,-1.20517 -5.75994,-5.15882 -10.59707,-6.60197 -4.8371,-1.44314 -13.02987,-4.71588 -17.7537,-5.01553 -4.72384,-0.29968 -10.44334,-0.37056 -12.70049,-0.17096 -2.25714,0.19959 -12.59466,2.82104 -15.71898,4.99669 z"
       id="path3-4-2" /></g><g
     id="layer3"
     style="display:inline;fill:#474747;fill-opacity:1"
     transform="translate(-41.283444,-135.82332)"><path
       id="text1"
       style="font-weight:bold;font-size:56px;line-height:875px;font-family:Lora;-inkscape-font-specification:'Lora, Bold';fill:#474747;fill-opacity:1;stroke:none"
       d="m 120.9026,214.25045 c -1.15734,0 -2.16477,0.44775 -3.02344,1.34375 -0.85867,0.896 -1.28906,1.97872 -1.28906,3.24805 0,1.26933 0.41109,2.35205 1.23242,3.24805 0.82133,0.896 1.86738,1.34375 3.13672,1.34375 1.26933,0 2.27677,-0.44775 3.02343,-1.34375 0.74667,-0.896 1.11915,-1.97872 1.11915,-3.24805 0,-1.26933 -0.40914,-2.35205 -1.23047,-3.24805 -0.784,-0.896 -1.77409,-1.34375 -2.96875,-1.34375 z m 345.24023,0 c -1.15733,0 -2.16477,0.44775 -3.02344,1.34375 -0.85866,0.896 -1.28906,1.97872 -1.28906,3.24805 0,1.26933 0.41109,2.35205 1.23242,3.24805 0.82134,0.896 1.86739,1.34375 3.13672,1.34375 1.26934,0 2.27677,-0.44775 3.02344,-1.34375 0.74667,-0.896 1.11914,-1.97872 1.11914,-3.24805 0,-1.26933 -0.40914,-2.35205 -1.23047,-3.24805 -0.784,-0.896 -1.77408,-1.34375 -2.96875,-1.34375 z m -406.896491,2.91211 -16.294922,0.0566 v 4.3125 c 0.410667,-0.0373 1.062984,-0.0566 1.958984,-0.0566 0.896,-0.0373 1.642901,-0.076 2.240235,-0.11328 -0.03733,0.48533 -0.0933,1.19557 -0.167969,2.12891 -0.03733,0.93333 -0.05664,1.90411 -0.05664,2.91211 v 21.44726 c 0,1.49334 -0.167906,2.57605 -0.503906,3.24805 -0.298667,0.672 -0.746417,1.1024 -1.34375,1.28906 -0.56,0.18667 -1.268286,0.29861 -2.126953,0.33594 v 3.69531 h 16.015625 c 3.92,0 7.260771,-0.59635 10.023438,-1.79101 2.762666,-1.232 5.003369,-2.81844 6.720703,-4.75977 1.717333,-1.97867 2.967953,-4.14409 3.751953,-6.49609 0.821333,-2.352 1.232422,-4.66798 1.232422,-6.94532 0,-2.31466 -0.430396,-4.60938 -1.289063,-6.88671 -0.858667,-2.31467 -2.165255,-4.40678 -3.919922,-6.27344 -1.717333,-1.86667 -3.938729,-3.34116 -6.664062,-4.42383 -2.688,-1.12 -5.880172,-1.67969 -9.576173,-1.67969 z m 88.423831,0.0566 v 4.3125 c 0.41067,-0.0373 1.06494,-0.0566 1.96094,-0.0566 0.896,-0.0373 1.6429,-0.076 2.24024,-0.11328 -0.0373,0.48533 -0.0759,1.19557 -0.11328,2.12891 -0.0373,0.93333 -0.074,1.90411 -0.11133,2.91211 l -0.33594,21.44726 c 0,1.49334 -0.16791,2.57605 -0.50391,3.24805 -0.29866,0.672 -0.74641,1.1024 -1.34375,1.28906 -0.56,0.18667 -1.27024,0.29861 -2.1289,0.33594 v 3.69531 h 12.76758 v -4.3125 c -0.37334,0 -1.02566,0.0193 -1.95899,0.0566 -0.896,0 -1.66221,0.0367 -2.29687,0.11133 0.0747,-0.48533 0.13063,-1.19362 0.16797,-2.12695 0.0747,-0.93334 0.11328,-1.90411 0.11328,-2.91211 v -2.51953 -2.52149 c 0.0373,-0.85866 0.0547,-1.71555 0.0547,-2.57422 v -2.52148 c 0.0373,-1.68 0.0373,-3.43434 0,-5.26367 -0.0373,-1.86667 -0.0933,-3.84488 -0.16796,-5.93555 0.41066,1.792 0.86036,3.52703 1.3457,5.20703 0.52266,1.68 1.00708,3.1738 1.45508,4.48047 0.48533,1.26933 0.87711,2.25942 1.17578,2.96875 1.26933,3.06133 2.51995,6.12226 3.75195,9.18359 1.26933,3.06134 2.53926,6.14157 3.80859,9.24024 h 5.20704 l 10.91992,-29.17578 c 0.0747,-0.26134 0.16925,-0.50452 0.28125,-0.72852 l 0.33593,-0.7832 c 0.0373,1.15733 0.074,2.40795 0.11133,3.75195 0.0747,1.30667 0.14995,2.51867 0.22461,3.63867 0.0747,1.08267 0.11133,1.84888 0.11133,2.29688 l 0.44922,11.87109 c 0.0747,1.49334 -0.0566,2.57605 -0.39258,3.24805 -0.29867,0.672 -0.76572,1.1024 -1.40039,1.28906 -0.59733,0.18667 -1.32493,0.29861 -2.18359,0.33594 v 3.69531 h 15.56836 v -4.3125 c -0.37334,0 -1.02761,0.0193 -1.96094,0.0566 -0.896,0 -1.66026,0.0367 -2.29492,0.11133 0.0747,-0.48533 0.14799,-1.19362 0.22265,-2.12695 0.0747,-0.93334 0.0747,-1.90411 0,-2.91211 l -0.83984,-21.44727 c -0.0373,-1.53066 0.0939,-2.61338 0.39258,-3.24804 0.336,-0.672 0.82041,-1.1024 1.45508,-1.28907 0.63466,-0.18666 1.36421,-0.2986 2.18554,-0.33593 v -3.69532 h -12.9375 l -4.36718,11.53516 c -1.41867,3.84533 -2.85651,7.70913 -4.3125,11.5918 -0.44801,1.15733 -0.87645,2.35198 -1.28711,3.58398 -0.41067,1.232 -0.85842,2.50193 -1.34375,3.80859 h -0.0566 c -0.18667,-0.63466 -0.46652,-1.47419 -0.83985,-2.51953 -0.37333,-1.08266 -0.76511,-2.18468 -1.17578,-3.30468 -0.41067,-1.15734 -0.78509,-2.16478 -1.12109,-3.02344 l -8.45508,-21.67188 z m 175,3.35938 c -0.26133,1.30666 -0.7824,2.55728 -1.5664,3.75195 -0.74667,1.19467 -1.66148,2.16544 -2.74414,2.91211 -1.08267,0.74667 -2.204,1.13845 -3.36133,1.17578 v 4.64844 h 3.80859 l -0.11132,13.49609 c 0,2.352 0.24122,4.23759 0.72656,5.65625 0.48533,1.41867 1.1396,2.50138 1.96094,3.24805 0.82133,0.70933 1.75349,1.19374 2.79882,1.45508 1.04534,0.26133 2.12805,0.39258 3.24805,0.39258 0.29867,0 0.82169,-0.0367 1.56836,-0.11133 0.74667,-0.0747 1.60551,-0.29854 2.57617,-0.67188 1.008,-0.37333 2.05405,-0.97163 3.13672,-1.79297 1.08267,-0.82133 2.12677,-1.97932 3.13477,-3.47265 l -2.6875,-2.51953 c -1.04534,1.49333 -2.03347,2.42744 -2.9668,2.80078 -0.896,0.37333 -1.60624,0.55859 -2.12891,0.55859 -0.93333,0 -1.64357,-0.26053 -2.1289,-0.7832 -0.48534,-0.56 -0.82115,-1.25093 -1.00782,-2.07227 -0.14933,-0.85866 -0.22265,-1.7175 -0.22265,-2.57617 l 0.0547,-13.77539 7.11328,-0.16797 v -4.3125 h -7.11328 l 0.0566,-7.83984 z m -263.535159,0.33594 c 2.613333,0.0747 4.852083,0.70963 6.71875,1.90429 1.904,1.19467 3.380448,3.00498 4.425781,5.43164 1.045333,2.42667 1.566406,5.54357 1.566406,9.35157 0,1.86666 -0.223875,3.67892 -0.671875,5.43359 -0.448,1.75467 -1.156286,3.3411 -2.126953,4.75977 -0.933333,1.38133 -2.147292,2.4814 -3.640625,3.30273 -1.456,0.82133 -3.210338,1.23242 -5.263672,1.23242 h -1.736328 c -0.709333,-0.0373 -1.400265,-0.0566 -2.072265,-0.0566 -0.634667,-0.0373 -1.138386,-0.0373 -1.511719,0 0.07467,-0.48533 0.130635,-1.19362 0.167969,-2.12695 0.03733,-0.93334 0.05664,-1.90411 0.05664,-2.91211 v -21.56055 c 0,-1.456 0.148599,-2.51941 0.447266,-3.1914 0.298666,-0.672 0.746416,-1.1024 1.34375,-1.28907 0.634666,-0.224 1.400875,-0.31663 2.296875,-0.27929 z m 37.912105,6.60742 c -2.165328,0 -4.143548,0.31846 -5.935548,0.95312 -1.791995,0.59734 -3.229828,1.45617 -4.312495,2.57617 -1.045333,1.08267 -1.568359,2.36995 -1.568359,3.86329 0,1.008 0.299151,1.88614 0.896484,2.63281 0.597334,0.74666 1.456172,1.13845 2.576172,1.17578 1.306668,0.0373 2.258138,-0.33709 2.855468,-1.12109 0.59733,-0.82134 0.89648,-1.6049 0.89648,-2.35157 0,-0.29866 -0.0386,-0.63448 -0.11328,-1.00781 -0.0747,-0.41067 -0.25992,-0.78314 -0.55859,-1.11914 0.48533,-0.48533 1.06237,-0.85976 1.73437,-1.12109 0.672,-0.26134 1.36294,-0.40994 2.07227,-0.44727 1.04533,-0.0373 1.848198,0.16723 2.408198,0.61524 0.59734,0.44799 1.00843,1.06365 1.23243,1.84765 0.26133,0.784 0.39257,1.66215 0.39257,2.63281 v 2.91211 c -1.86666,0.0747 -3.734888,0.33521 -5.601558,0.78321 -1.82933,0.41066 -3.50839,1.02632 -5.039061,1.84765 -1.493333,0.784 -2.707292,1.81075 -3.640625,3.08008 -0.896,1.26933 -1.34375,2.80175 -1.34375,4.59375 0,2.128 0.671625,3.89969 2.015625,5.31836 1.344,1.41867 3.212229,2.12891 5.601561,2.12891 1.456,0 2.89188,-0.26054 4.31055,-0.78321 1.418658,-0.52266 2.763868,-1.42012 4.033198,-2.68945 0.0373,0.48533 0.0547,0.91573 0.0547,1.28906 0.0373,0.336 0.0933,0.76445 0.16797,1.28711 h 10.58398 v -4.25586 c -0.37333,0 -0.91371,0.0193 -1.62305,0.0566 -0.70933,0 -1.38095,0.0367 -2.01562,0.11133 0.0747,-0.85867 0.13064,-1.75417 0.16797,-2.6875 0.0373,-0.97067 0.0547,-1.71757 0.0547,-2.24023 v -3.24805 c 0.0373,-0.896 0.0566,-1.7915 0.0566,-2.6875 v -3.24805 c 0,-3.73333 -0.91481,-6.44109 -2.74414,-8.12109 -1.792,-1.71733 -4.32991,-2.57617 -7.615296,-2.57617 z m 116.367204,0 c -2.16534,0 -4.14355,0.31846 -5.93555,0.95312 -1.792,0.59734 -3.22983,1.45617 -4.3125,2.57617 -1.04533,1.08267 -1.56836,2.36995 -1.56836,3.86329 0,1.008 0.29915,1.88614 0.89648,2.63281 0.59734,0.74666 1.45618,1.13845 2.57618,1.17578 1.30666,0.0373 2.25813,-0.33709 2.85546,-1.12109 0.59734,-0.82134 0.89649,-1.6049 0.89649,-2.35157 0,-0.29866 -0.0367,-0.63448 -0.11133,-1.00781 -0.0747,-0.41067 -0.26188,-0.78314 -0.56055,-1.11914 0.48534,-0.48533 1.06433,-0.85976 1.73633,-1.12109 0.672,-0.26134 1.36293,-0.40994 2.07227,-0.44727 1.04533,-0.0373 1.8482,0.16723 2.4082,0.61524 0.59733,0.44799 1.00647,1.06365 1.23047,1.84765 0.26133,0.784 0.39258,1.66215 0.39258,2.63281 v 2.91211 c -1.86667,0.0747 -3.73295,0.33521 -5.59961,0.78321 -1.82934,0.41066 -3.51035,1.02632 -5.04102,1.84765 -1.49333,0.784 -2.70534,1.81075 -3.63867,3.08008 -0.896,1.26933 -1.34375,2.80175 -1.34375,4.59375 0,2.128 0.67163,3.89969 2.01563,5.31836 1.344,1.41867 3.21027,2.12891 5.5996,2.12891 1.456,0 2.89384,-0.26054 4.3125,-0.78321 1.41867,-0.52266 2.76192,-1.42012 4.03126,-2.68945 0.0373,0.48533 0.0566,0.91573 0.0566,1.28906 0.0373,0.336 0.0933,0.76445 0.16796,1.28711 h 10.58399 v -4.25586 c -0.37333,0 -0.91567,0.0193 -1.625,0.0566 -0.70933,0 -1.38096,0.0367 -2.01563,0.11133 0.0747,-0.85867 0.13064,-1.75417 0.16797,-2.6875 0.0373,-0.97067 0.0566,-1.71757 0.0566,-2.24023 v -3.24805 c 0.0373,-0.896 0.0566,-1.7915 0.0566,-2.6875 v -3.24805 c 0,-3.73333 -0.9148,-6.44109 -2.74414,-8.12109 -1.792,-1.71733 -4.33185,-2.57617 -7.61718,-2.57617 z m 27.32812,0 c -1.82933,0 -3.41577,0.26249 -4.75977,0.78515 -1.30666,0.52267 -2.38938,1.23096 -3.24804,2.12696 -0.85867,0.85866 -1.49363,1.82944 -1.9043,2.91211 -0.41067,1.04533 -0.61523,2.11069 -0.61523,3.19336 0,1.49333 0.29915,2.7613 0.89648,3.80664 0.59733,1.008 1.3809,1.86683 2.35156,2.57617 1.008,0.672 2.09072,1.25099 3.24805,1.73633 1.19467,0.48533 2.37001,0.95239 3.52734,1.40039 1.41867,0.52266 2.59401,0.98972 3.52735,1.40039 0.97066,0.41066 1.70021,0.83911 2.18555,1.28711 0.52266,0.448 0.7832,1.02699 0.7832,1.73633 0,0.63466 -0.20457,1.17504 -0.61524,1.62304 -0.37333,0.41067 -0.85969,0.70982 -1.45703,0.89649 -0.56,0.18666 -1.15635,0.28125 -1.79101,0.28125 -1.568,0 -2.98653,-0.26249 -4.25586,-0.78516 -1.26934,-0.56 -2.29608,-1.3069 -3.08008,-2.24023 -0.784,-0.93334 -1.23175,-1.96008 -1.34375,-3.08008 h -3.64063 l 0.22461,9.63281 h 4.25586 l -0.11328,-1.67969 c 0.85867,0.63467 2.05332,1.1577 3.58399,1.56836 1.53066,0.41067 3.09974,0.61524 4.70507,0.61524 1.75467,0 3.39707,-0.31846 4.92774,-0.95313 1.568,-0.63467 2.83793,-1.58613 3.80859,-2.85547 0.97067,-1.26933 1.45508,-2.87507 1.45508,-4.8164 0,-1.75467 -0.42844,-3.22917 -1.28711,-4.42383 -0.85867,-1.232 -2.03596,-2.2761 -3.5293,-3.13477 -1.456,-0.85866 -3.13506,-1.60557 -5.03906,-2.24023 -1.26933,-0.448 -2.42732,-0.83978 -3.47265,-1.17578 -1.04534,-0.336 -1.86556,-0.74709 -2.4629,-1.23242 -0.59733,-0.52267 -0.89648,-1.2136 -0.89648,-2.07227 0,-1.08267 0.37247,-1.84692 1.11914,-2.29492 0.784,-0.448 1.64284,-0.67383 2.57617,-0.67383 1.344,0 2.55796,0.26249 3.64063,0.78516 1.08266,0.48533 1.95886,1.19362 2.63086,2.12695 0.70933,0.93333 1.17639,2.05466 1.40039,3.36133 h 3.64062 v -9.91211 h -4.25586 v 1.62304 c -0.896,-0.63466 -1.99802,-1.10172 -3.30468,-1.40039 -1.26934,-0.336 -2.40802,-0.5039 -3.41602,-0.5039 z m 27.16016,0 c -1.82934,0 -3.41577,0.26249 -4.75977,0.78515 -1.30667,0.52267 -2.38938,1.23096 -3.24805,2.12696 -0.85866,0.85866 -1.49363,1.82944 -1.90429,2.91211 -0.41067,1.04533 -0.61524,2.11069 -0.61524,3.19336 0,1.49333 0.29915,2.7613 0.89649,3.80664 0.59733,1.008 1.38089,1.86683 2.35156,2.57617 1.008,0.672 2.09071,1.25099 3.24805,1.73633 1.19466,0.48533 2.37001,0.95239 3.52734,1.40039 1.41867,0.52266 2.59401,0.98972 3.52734,1.40039 0.97067,0.41066 1.70022,0.83911 2.18555,1.28711 0.52267,0.448 0.7832,1.02699 0.7832,1.73633 0,0.63466 -0.20456,1.17504 -0.61523,1.62304 -0.37333,0.41067 -0.8597,0.70982 -1.45703,0.89649 -0.56,0.18666 -1.15635,0.28125 -1.79102,0.28125 -1.568,0 -2.98652,-0.26249 -4.25586,-0.78516 -1.26933,-0.56 -2.29607,-1.3069 -3.08007,-2.24023 -0.784,-0.93334 -1.23371,-1.96008 -1.34571,-3.08008 h -3.63867 l 0.22266,9.63281 h 4.25781 l -0.11328,-1.67969 c 0.85866,0.63467 2.05332,1.1577 3.58398,1.56836 1.53067,0.41067 3.09975,0.61524 4.70508,0.61524 1.75467,0 3.39707,-0.31846 4.92773,-0.95313 1.568,-0.63467 2.83598,-1.58613 3.80665,-2.85547 0.97066,-1.26933 1.45703,-2.87507 1.45703,-4.8164 0,-1.75467 -0.42845,-3.22917 -1.28711,-4.42383 -0.85867,-1.232 -2.03597,-2.2761 -3.5293,-3.13477 -1.456,-0.85866 -3.13506,-1.60557 -5.03906,-2.24023 -1.26934,-0.448 -2.42732,-0.83978 -3.47266,-1.17578 -1.04533,-0.336 -1.86751,-0.74709 -2.46484,-1.23242 -0.59734,-0.52267 -0.89453,-1.2136 -0.89453,-2.07227 0,-1.08267 0.37247,-1.84692 1.11914,-2.29492 0.784,-0.448 1.64284,-0.67383 2.57617,-0.67383 1.344,0 2.55796,0.26249 3.64062,0.78516 1.08267,0.48533 1.95886,1.19362 2.63086,2.12695 0.70934,0.93333 1.17639,2.05466 1.40039,3.36133 h 3.64063 v -9.91211 h -4.25586 v 1.62304 c -0.896,-0.63466 -1.99802,-1.10172 -3.30469,-1.40039 -1.26933,-0.336 -2.40801,-0.5039 -3.41601,-0.5039 z m 30.29687,0 c -2.53866,0 -4.89131,0.65427 -7.05664,1.96094 -2.128,1.26933 -3.84568,3.07964 -5.15234,5.43164 -1.26934,2.31466 -1.9043,5.02242 -1.9043,8.12109 0,2.912 0.61566,5.4499 1.84766,7.61523 1.26933,2.128 2.98701,3.7704 5.15234,4.92774 2.16533,1.15733 4.59325,1.73633 7.28125,1.73633 2.72533,0 5.13199,-0.61566 7.22266,-1.84766 2.09066,-1.26933 3.73502,-3.06229 4.92968,-5.37695 1.19467,-2.31467 1.79102,-5.03978 1.79102,-8.17578 0,-2.98667 -0.61566,-5.54388 -1.84766,-7.67188 -1.232,-2.16533 -2.91301,-3.82704 -5.04101,-4.98437 -2.128,-1.15734 -4.53466,-1.73633 -7.22266,-1.73633 z m 54.71094,0 c -2.8,0 -5.26263,0.71024 -7.39063,2.1289 -2.09066,1.38134 -3.71571,3.21095 -4.87304,5.48828 -1.15734,2.27734 -1.73633,4.72261 -1.73633,7.33594 0,3.024 0.57899,5.65649 1.73633,7.89649 1.15733,2.20266 2.78238,3.91839 4.87304,5.15039 2.09067,1.19466 4.49733,1.79297 7.22266,1.79297 1.26933,0 2.6512,-0.16791 4.14453,-0.50391 1.53067,-0.336 3.06113,-0.99027 4.5918,-1.96094 1.53067,-1.008 2.9685,-2.46319 4.3125,-4.36718 l -2.51953,-2.35157 c -0.85867,1.04534 -1.79278,1.88487 -2.80078,2.51953 -0.97067,0.59734 -1.94145,1.02578 -2.91211,1.28711 -0.93334,0.26134 -1.77287,0.39258 -2.51953,0.39258 -1.94134,0 -3.49111,-0.46706 -4.64844,-1.40039 -1.15734,-0.93333 -1.99687,-2.20131 -2.51953,-3.80664 -0.48534,-1.60533 -0.72852,-3.41759 -0.72852,-5.43359 l 18.36719,-0.33594 c 0.0373,-2.688 -0.31583,-4.92675 -1.0625,-6.71875 -0.70933,-1.792 -1.68011,-3.21053 -2.91211,-4.25586 -1.19467,-1.04533 -2.53987,-1.77488 -4.0332,-2.18555 -1.49334,-0.448 -3.0238,-0.67187 -4.5918,-0.67187 z m 36.06445,0 c -0.896,0 -1.7915,0.18721 -2.6875,0.56054 -0.85866,0.336 -1.73681,0.87834 -2.63281,1.625 -0.896,0.74667 -1.84747,1.7348 -2.85547,2.9668 0,-0.784 -0.0193,-1.6795 -0.0566,-2.6875 -0.0373,-1.04533 -0.0933,-1.75557 -0.16797,-2.1289 h -2.74414 c -0.37333,0.37333 -1.1762,0.74776 -2.4082,1.12109 -1.19467,0.37333 -2.51861,0.56055 -3.97461,0.56055 h -2.24024 v 4.25586 c 0.41067,-0.0373 1.00702,-0.0566 1.79102,-0.0566 0.82133,-0.0373 1.53157,-0.074 2.12891,-0.11132 -0.0747,0.82133 -0.13064,1.66086 -0.16797,2.51953 -0.0373,0.82133 -0.0566,1.56823 -0.0566,2.24023 v 9.40821 c 0,0.97066 -0.0753,1.84685 -0.22461,2.63085 -0.112,0.74667 -0.39185,1.32567 -0.83985,1.73633 -0.448,0.41067 -1.1949,0.61524 -2.24023,0.61524 v 3.64062 h 14.67383 v -4.25586 c -0.37334,0 -0.93498,0.0193 -1.68164,0.0566 -0.70934,0 -1.36165,0.0367 -1.95899,0.11133 0.0747,-0.85867 0.13064,-1.75417 0.16797,-2.6875 0.0373,-0.97067 0.0566,-1.71757 0.0566,-2.24023 v -9.12891 c 0.224,-0.70933 0.61578,-1.47359 1.17578,-2.29492 0.59734,-0.85867 1.26896,-1.58626 2.01563,-2.18359 0.74666,-0.63467 1.49357,-0.95313 2.24023,-0.95313 0.112,1.26933 0.55975,2.12817 1.34375,2.57617 0.784,0.448 1.54826,0.67188 2.29492,0.67188 0.97067,0 1.73688,-0.20457 2.29688,-0.61524 0.56,-0.41066 0.97109,-0.91438 1.23242,-1.51172 0.26133,-0.63466 0.39063,-1.23296 0.39063,-1.79296 0,-1.64267 -0.48442,-2.81802 -1.45508,-3.52735 -0.97067,-0.74667 -2.10935,-1.12109 -3.41602,-1.12109 z m 19.65625,0 c -2.16533,0 -4.14354,0.31846 -5.93554,0.95312 -1.792,0.59734 -3.22984,1.45617 -4.3125,2.57617 -1.04534,1.08267 -1.56836,2.36995 -1.56836,3.86329 0,1.008 0.29915,1.88614 0.89648,2.63281 0.59733,0.74666 1.45617,1.13845 2.57617,1.17578 1.30667,0.0373 2.25814,-0.33709 2.85547,-1.12109 0.59733,-0.82134 0.89649,-1.6049 0.89649,-2.35157 0,-0.29866 -0.0386,-0.63448 -0.11329,-1.00781 -0.0747,-0.41067 -0.25992,-0.78314 -0.55859,-1.11914 0.48533,-0.48533 1.06433,-0.85976 1.73633,-1.12109 0.672,-0.26134 1.36098,-0.40994 2.07031,-0.44727 1.04533,-0.0373 1.8482,0.16723 2.4082,0.61524 0.59734,0.44799 1.00843,1.06365 1.23243,1.84765 0.26133,0.784 0.39257,1.66215 0.39257,2.63281 v 2.91211 c -1.86666,0.0747 -3.73294,0.33521 -5.59961,0.78321 -1.82933,0.41066 -3.51034,1.02632 -5.04101,1.84765 -1.49333,0.784 -2.70729,1.81075 -3.64063,3.08008 -0.896,1.26933 -1.34375,2.80175 -1.34375,4.59375 0,2.128 0.67163,3.89969 2.01563,5.31836 1.344,1.41867 3.21223,2.12891 5.60156,2.12891 1.456,0 2.89188,-0.26054 4.31055,-0.78321 1.41867,-0.52266 2.76387,-1.42012 4.0332,-2.68945 0.0373,0.48533 0.0547,0.91573 0.0547,1.28906 0.0373,0.336 0.0952,0.76445 0.16992,1.28711 h 10.58399 v -4.25586 c -0.37334,0 -0.91567,0.0193 -1.625,0.0566 -0.70934,0 -1.38096,0.0367 -2.01563,0.11133 0.0747,-0.85867 0.13064,-1.75417 0.16797,-2.6875 0.0373,-0.97067 0.0566,-1.71757 0.0566,-2.24023 v -3.24805 c 0.0373,-0.896 0.0547,-1.7915 0.0547,-2.6875 v -3.24805 c 0,-3.73333 -0.91481,-6.44109 -2.74414,-8.12109 -1.792,-1.71733 -4.3299,-2.57617 -7.61524,-2.57617 z m 35.16797,0 c -1.15733,0 -2.38864,0.22387 -3.69531,0.67187 -1.26933,0.448 -2.55857,1.23352 -3.86524,2.35352 -0.0373,-0.336 -0.074,-0.7664 -0.11132,-1.28906 -0.0373,-0.56 -0.0933,-1.02706 -0.16797,-1.40039 h -2.74414 c -0.26134,0.22399 -0.7477,0.46718 -1.45703,0.72851 -0.672,0.26133 -1.60417,0.48521 -2.79883,0.67188 -1.15734,0.18666 -2.61448,0.28125 -4.36914,0.28125 v 4.25586 c 0.41066,-0.0373 1.02827,-0.0566 1.84961,-0.0566 0.82133,-0.0373 1.52962,-0.074 2.12695,-0.11132 -0.0747,0.82133 -0.13064,1.66086 -0.16797,2.51953 -0.0373,0.82133 -0.0566,1.56823 -0.0566,2.24023 v 23.6875 c 0,0.97067 -0.0733,1.82951 -0.22266,2.57617 -0.112,0.784 -0.41115,1.38035 -0.89648,1.79102 -0.448,0.41067 -1.1949,0.61719 -2.24024,0.61719 v 3.64062 h 14.67188 v -4.25781 h -1.62305 c -0.70933,0.0373 -1.3636,0.0933 -1.96093,0.16797 0.0747,-0.85867 0.11132,-1.77152 0.11132,-2.74219 0.0373,-0.93333 0.0566,-1.66288 0.0566,-2.18555 v -5.375 c 0.70934,0.26134 1.45624,0.48521 2.24024,0.67188 0.82133,0.224 1.73614,0.33594 2.74414,0.33594 2.8,0 5.22596,-0.67163 7.2793,-2.01563 2.09066,-1.344 3.71571,-3.19292 4.87304,-5.54492 1.15734,-2.38933 1.73633,-5.07779 1.73633,-8.06445 0,-2.87467 -0.48636,-5.37591 -1.45703,-7.50391 -0.93333,-2.128 -2.25923,-3.7704 -3.97656,-4.92773 -1.68,-1.15734 -3.63891,-1.73633 -5.87891,-1.73633 z m 46.14453,0 c -2.16533,0 -4.1455,0.31846 -5.9375,0.95312 -1.792,0.59734 -3.22788,1.45617 -4.31054,2.57617 -1.04534,1.08267 -1.56836,2.36995 -1.56836,3.86329 0,1.008 0.29915,1.88614 0.89648,2.63281 0.59733,0.74666 1.45422,1.13845 2.57422,1.17578 1.30667,0.0373 2.26009,-0.33709 2.85742,-1.12109 0.59733,-0.82134 0.89453,-1.6049 0.89453,-2.35157 0,-0.29866 -0.0367,-0.63448 -0.11133,-1.00781 -0.0747,-0.41067 -0.26188,-0.78314 -0.56054,-1.11914 0.48533,-0.48533 1.06433,-0.85976 1.73633,-1.12109 0.672,-0.26134 1.36293,-0.40994 2.07226,-0.44727 1.04533,-0.0373 1.8482,0.16723 2.4082,0.61524 0.59734,0.44799 1.00843,1.06365 1.23243,1.84765 0.26133,0.784 0.39257,1.66215 0.39257,2.63281 v 2.91211 c -1.86666,0.0747 -3.73489,0.33521 -5.60156,0.78321 -1.82933,0.41066 -3.50839,1.02632 -5.03906,1.84765 -1.49333,0.784 -2.70729,1.81075 -3.64063,3.08008 -0.896,1.26933 -1.34375,2.80175 -1.34375,4.59375 0,2.128 0.67163,3.89969 2.01563,5.31836 1.344,1.41867 3.21028,2.12891 5.59961,2.12891 1.456,0 2.89383,-0.26054 4.3125,-0.78321 1.41867,-0.52266 2.76387,-1.42012 4.0332,-2.68945 0.0373,0.48533 0.0547,0.91573 0.0547,1.28906 0.0373,0.336 0.0933,0.76445 0.16797,1.28711 h 10.58398 v -4.25586 c -0.37333,0 -0.91371,0.0193 -1.62304,0.0566 -0.70934,0 -1.38096,0.0367 -2.01563,0.11133 0.0747,-0.85867 0.13064,-1.75417 0.16797,-2.6875 0.0373,-0.97067 0.0547,-1.71757 0.0547,-2.24023 v -3.24805 c 0.0373,-0.896 0.0566,-1.7915 0.0566,-2.6875 v -3.24805 c 0,-3.73333 -0.91481,-6.44109 -2.74414,-8.12109 -1.792,-1.71733 -4.3299,-2.57617 -7.61524,-2.57617 z m -367.75195,0.33594 c -0.26133,0.224 -0.7477,0.46718 -1.45703,0.72851 -0.672,0.26133 -1.60612,0.48521 -2.80078,0.67188 -1.19467,0.18666 -2.64985,0.28125 -4.36719,0.28125 v 4.25586 c 0.41067,-0.0373 1.00897,-0.0566 1.79297,-0.0566 0.82133,-0.0373 1.52962,-0.074 2.12695,-0.11132 -0.0747,0.82133 -0.13063,1.68017 -0.16797,2.57617 -0.0373,0.85866 -0.0566,1.62292 -0.0566,2.29492 v 9.29688 c 0,0.97066 -0.0733,1.84685 -0.22265,2.63085 -0.112,0.74667 -0.39185,1.32567 -0.83984,1.73633 -0.448,0.41067 -1.19491,0.61524 -2.24024,0.61524 v 3.64062 h 14.67187 v -4.25586 c -0.37333,0 -0.93302,0.0193 -1.67968,0.0566 -0.70934,0 -1.36361,0.0367 -1.96094,0.11133 0.0747,-0.85867 0.13063,-1.75417 0.16797,-2.6875 0.0373,-0.97067 0.0566,-1.71757 0.0566,-2.24023 v -19.54492 z m 345.23828,0 c -0.26133,0.22399 -0.74574,0.46718 -1.45508,0.72851 -0.672,0.26133 -1.60611,0.48521 -2.80078,0.67188 -1.19467,0.18666 -2.64985,0.28125 -4.36719,0.28125 v 4.25586 c 0.41067,-0.0373 1.00702,-0.0566 1.79102,-0.0566 0.82133,-0.0373 1.53157,-0.074 2.12891,-0.11132 -0.0747,0.82133 -0.13064,1.68017 -0.16797,2.57617 -0.0373,0.85866 -0.0566,1.62292 -0.0566,2.29492 v 9.29688 c 0,0.97066 -0.0733,1.84685 -0.22266,2.63085 -0.112,0.74667 -0.39184,1.32567 -0.83984,1.73633 -0.448,0.41067 -1.1949,0.61524 -2.24024,0.61524 v 3.64062 h 14.67188 v -4.25586 c -0.37334,0 -0.93302,0.0193 -1.67969,0.0566 -0.70933,0 -1.3636,0.0367 -1.96094,0.11133 0.0747,-0.85867 0.13064,-1.75417 0.16797,-2.6875 0.0373,-0.97067 0.0566,-1.71757 0.0566,-2.24023 v -19.54492 z m -169.34375,3.58398 c 1.12,-0.0373 2.05412,0.30043 2.80078,1.00976 0.784,0.70934 1.39966,1.6415 1.84766,2.79883 0.448,1.15734 0.76646,2.44657 0.95312,3.86524 0.224,1.41866 0.33594,2.81788 0.33594,4.19922 0,1.568 -0.15055,3.11777 -0.44922,4.64843 -0.29866,1.53067 -0.83905,2.79864 -1.62304,3.80664 -0.74667,1.008 -1.868,1.53103 -3.36133,1.56836 -1.53067,0.0373 -2.76198,-0.52235 -3.69532,-1.67968 -0.896,-1.19467 -1.55027,-2.70583 -1.96093,-4.53516 -0.41067,-1.82933 -0.61524,-3.69756 -0.61524,-5.60156 0,-1.64267 0.16791,-3.20979 0.50391,-4.70313 0.37333,-1.53066 0.97163,-2.80059 1.79297,-3.80859 0.85866,-1.008 2.0147,-1.53103 3.4707,-1.56836 z m 55.10547,0 c 0.896,0 1.67956,0.20652 2.35156,0.61719 0.672,0.41066 1.19503,1.08229 1.56836,2.01562 0.41067,0.896 0.63454,2.12731 0.67188,3.69531 h -10.30469 c 0.29867,-1.86666 0.91432,-3.37782 1.84766,-4.53515 0.93333,-1.19467 2.22256,-1.79297 3.86523,-1.79297 z m 87.58398,1.12109 c 1.456,-0.0373 2.63135,0.42973 3.52735,1.40039 0.896,0.93334 1.54832,2.16465 1.95898,3.69532 0.41067,1.53066 0.61719,3.15571 0.61719,4.87304 0,1.82934 -0.18721,3.54506 -0.56055,5.15039 -0.37333,1.60534 -1.04496,2.91193 -2.01562,3.91993 -0.93334,0.97066 -2.25923,1.47633 -3.97656,1.51367 -0.82134,0.0373 -1.6049,-0.0572 -2.35157,-0.28125 -0.74666,-0.224 -1.32566,-0.46718 -1.73633,-0.72852 v -3.41601 -3.41602 -3.41601 -3.35938 -3.47266 c 0.52267,-0.74666 1.17694,-1.3237 1.96094,-1.73437 0.784,-0.448 1.64284,-0.69118 2.57617,-0.72852 z M 99.566646,243.53948 v 2.07031 2.01758 1.11914 1.06445 c -0.59733,0.59733 -1.26896,1.08174 -2.01562,1.45508 -0.746668,0.37333 -1.549538,0.56054 -2.408208,0.56054 -0.82133,0 -1.54892,-0.22387 -2.18359,-0.67187 -0.63467,-0.448 -0.97048,-1.1949 -1.00781,-2.24023 0,-0.784 0.18526,-1.49229 0.55859,-2.12696 0.41067,-0.63466 0.953,-1.177 1.625,-1.625 0.70934,-0.448 1.52956,-0.80312 2.46289,-1.06445 0.933338,-0.26133 1.923418,-0.44659 2.968748,-0.55859 z m 116.367204,0 v 2.07031 2.01758 1.11914 1.06445 c -0.59734,0.59733 -1.26896,1.08174 -2.01563,1.45508 -0.74666,0.37333 -1.54953,0.56054 -2.4082,0.56054 -0.82133,0 -1.54893,-0.22387 -2.18359,-0.67187 -0.63467,-0.448 -0.97048,-1.1949 -1.00782,-2.24023 0,-0.784 0.18722,-1.49229 0.56055,-2.12696 0.41067,-0.63466 0.95105,-1.177 1.62305,-1.625 0.70933,-0.448 1.53151,-0.80312 2.46484,-1.06445 0.93333,-0.26133 1.92146,-0.44659 2.9668,-0.55859 z m 195.21679,0 v 2.07031 2.01758 1.11914 1.06445 c -0.59733,0.59733 -1.26895,1.08174 -2.01562,1.45508 -0.74667,0.37333 -1.54954,0.56054 -2.4082,0.56054 -0.82134,0 -1.54893,-0.22387 -2.1836,-0.67187 -0.63466,-0.448 -0.97048,-1.1949 -1.00781,-2.24023 0,-0.784 0.18526,-1.49229 0.55859,-2.12696 0.41067,-0.63466 0.953,-1.177 1.625,-1.625 0.70934,-0.448 1.52956,-0.80312 2.46289,-1.06445 0.93334,-0.26133 1.92342,-0.44659 2.96875,-0.55859 z m 81.3125,0 v 2.07031 2.01758 1.11914 1.06445 c -0.59733,0.59733 -1.26895,1.08174 -2.01562,1.45508 -0.74667,0.37333 -1.54954,0.56054 -2.4082,0.56054 -0.82134,0 -1.54893,-0.22387 -2.1836,-0.67187 -0.63466,-0.448 -0.97243,-1.1949 -1.00976,-2.24023 0,-0.784 0.18721,-1.49229 0.56054,-2.12696 0.41067,-0.63466 0.953,-1.177 1.625,-1.625 0.70934,-0.448 1.52956,-0.80312 2.46289,-1.06445 0.93334,-0.26133 1.92342,-0.44659 2.96875,-0.55859 z m -177.54297,25.0332 c -0.432,0 -0.8406,0.11937 -1.2246,0.35937 -0.36,0.216 -0.67155,0.5295 -0.93555,0.9375 l -2.95117,5.03907 1.65625,1.47656 4.35547,-3.81641 c 0.336,-0.312 0.58785,-0.67208 0.75586,-1.08008 0.192,-0.432 0.26284,-0.86292 0.21484,-1.29492 -0.048,-0.456 -0.26249,-0.85345 -0.64649,-1.18945 -0.384,-0.312 -0.7926,-0.45564 -1.22461,-0.43164 z m 28.33204,1.04492 c -0.744,0 -1.39136,0.28728 -1.94336,0.86328 -0.552,0.576 -0.82813,1.27189 -0.82813,2.08789 0,0.816 0.26302,1.51189 0.79102,2.08789 0.528,0.576 1.19962,0.86524 2.01562,0.86524 0.816,0 1.46531,-0.28924 1.94531,-0.86524 0.48001,-0.576 0.71876,-1.27189 0.71876,-2.08789 -1e-5,-0.816 -0.26302,-1.51189 -0.79102,-2.08789 -0.504,-0.576 -1.1402,-0.86328 -1.9082,-0.86328 z m -291.996106,1.83594 c -1.656,0.024 -3.323906,0.0351 -5.003906,0.0351 -1.656,0 -3.31275,0.0131 -4.96875,0.0371 v 2.77149 c 0.264,-0.024 0.683766,-0.0371 1.259766,-0.0371 0.576,-0.024 1.057406,-0.0463 1.441406,-0.0703 -0.024,0.312 -0.06137,0.76718 -0.109375,1.36718 -0.024,0.6 -0.03516,1.2231 -0.03516,1.8711 v 13.78906 c 0,0.96 -0.108219,1.65589 -0.324219,2.08789 -0.192,0.432 -0.479281,0.70813 -0.863281,0.82813 -0.36,0.12 -0.817141,0.19084 -1.369141,0.21484 v 2.37695 h 12.240235 c 1.68,0 3.18,-0.26497 4.5,-0.79297 1.32,-0.552 2.351703,-1.35415 3.095703,-2.41015 0.768,-1.08 1.152344,-2.40094 1.152344,-3.96094 -10e-7,-1.488 -0.563407,-2.83125 -1.691407,-4.03125 -1.128,-1.224 -2.892969,-2.02811 -5.292969,-2.41211 v -0.0371 c 1.128,-0.312 2.064594,-0.73176 2.808594,-1.25976 0.768,-0.528 1.344516,-1.11568 1.728516,-1.76368 0.384,-0.672 0.600437,-1.35673 0.648437,-2.05273 0.12,-2.208 -0.672953,-3.85164 -2.376953,-4.93164 -1.68,-1.104 -3.959843,-1.64314 -6.839844,-1.61914 z m 116.351566,2.23047 c -0.16799,0.84 -0.50381,1.64411 -1.00781,2.41211 -0.48,0.768 -1.06767,1.39304 -1.76367,1.87304 -0.696,0.48 -1.41616,0.73186 -2.16016,0.75586 v 2.98828 h 2.44727 l -0.0703,8.67578 c 0,1.51201 0.15479,2.72472 0.46679,3.63672 0.312,0.912 0.73177,1.60789 1.25977,2.08789 0.528,0.456 1.12878,0.76755 1.80078,0.93555 0.672,0.168 1.36789,0.25195 2.08789,0.25195 0.192,0 0.52781,-0.0243 1.00781,-0.0723 0.48,-0.048 1.03225,-0.19164 1.65625,-0.43164 0.648,-0.24 1.31963,-0.62435 2.01563,-1.15235 0.696,-0.528 1.36762,-1.27242 2.01562,-2.23242 l -1.72656,-1.61914 c -0.672,0.96 -1.3082,1.55883 -1.9082,1.79883 -0.576,0.24 -1.03314,0.36133 -1.36914,0.36133 -0.6,0 -1.05519,-0.16791 -1.36719,-0.50391 -0.312,-0.36 -0.52844,-0.80403 -0.64844,-1.33203 -0.096,-0.552 -0.14453,-1.10425 -0.14453,-1.65625 l 0.0371,-8.85547 4.57227,-0.10937 v -2.77149 h -4.57227 l 0.0352,-5.04101 z m 126.14454,0 c -0.168,0.84 -0.50382,1.64411 -1.00782,2.41211 -0.48,0.768 -1.06767,1.39304 -1.76367,1.87304 -0.696,0.48 -1.41615,0.73186 -2.16015,0.75586 v 2.98828 h 2.44726 l -0.0723,8.67578 c 0,1.51201 0.15675,2.72472 0.46875,3.63672 0.312,0.912 0.73176,1.60789 1.25976,2.08789 0.528,0.456 1.12878,0.76755 1.80078,0.93555 0.672,0.168 1.36789,0.25195 2.08789,0.25195 0.192,0 0.52782,-0.0243 1.00782,-0.0723 0.48,-0.048 1.03225,-0.19164 1.65625,-0.43164 0.648,-0.24 1.31962,-0.62435 2.01562,-1.15235 0.696,-0.528 1.36763,-1.27242 2.01563,-2.23242 l -1.72852,-1.61914 c -0.672,0.96 -1.3082,1.55883 -1.9082,1.79883 -0.576,0.24 -1.03119,0.36133 -1.36719,0.36133 -0.6,0 -1.05519,-0.16791 -1.36719,-0.50391 -0.312,-0.36 -0.52844,-0.80403 -0.64844,-1.33203 -0.096,-0.552 -0.14453,-1.10425 -0.14453,-1.65625 l 0.0371,-8.85547 4.57032,-0.10937 v -2.77149 h -4.57032 l 0.0352,-5.04101 z m 34.23632,0 c -0.168,0.84 -0.50381,1.64411 -1.00781,2.41211 -0.48,0.768 -1.06767,1.39304 -1.76367,1.87304 -0.696,0.48 -1.41616,0.73186 -2.16016,0.75586 v 2.98828 h 2.44727 l -0.0723,8.67578 c 0,1.51201 0.15675,2.72472 0.46875,3.63672 0.312,0.912 0.73177,1.60789 1.25977,2.08789 0.528,0.456 1.12878,0.76755 1.80078,0.93555 0.672,0.168 1.36789,0.25195 2.08789,0.25195 0.192,0 0.52781,-0.0243 1.00781,-0.0723 0.48,-0.048 1.03225,-0.19164 1.65625,-0.43164 0.648,-0.24 1.31963,-0.62435 2.01563,-1.15235 0.696,-0.528 1.36762,-1.27242 2.01562,-2.23242 l -1.72851,-1.61914 c -0.672,0.96 -1.3082,1.55883 -1.90821,1.79883 -0.576,0.24 -1.03118,0.36133 -1.36718,0.36133 -0.6,0 -1.05714,-0.16791 -1.36914,-0.50391 -0.312,-0.36 -0.52649,-0.80403 -0.64649,-1.33203 -0.096,-0.552 -0.14453,-1.10425 -0.14453,-1.65625 l 0.0352,-8.85547 4.57226,-0.10937 v -2.77149 h -4.57226 l 0.0371,-5.04101 z m -276.839847,0.2891 c 0.624,-0.024 1.222828,0.0842 1.798828,0.32422 0.576,0.24 1.057406,0.6355 1.441406,1.1875 0.384,0.528 0.576172,1.27242 0.576172,2.23242 0,0.864 -0.132484,1.66811 -0.396485,2.41211 -0.239999,0.72 -0.659765,1.29651 -1.259765,1.72852 -0.576,0.432 -1.368953,0.65959 -2.376953,0.68359 l -1.871094,0.0351 v -5.58007 c 0,-0.936 0.09511,-1.60763 0.287109,-2.01563 0.192,-0.432 0.44386,-0.70812 0.75586,-0.82812 0.312,-0.12 0.660922,-0.17969 1.044922,-0.17969 z m 22.248047,4.17578 c -1.800001,0 -3.383954,0.45519 -4.751954,1.36719 -1.344,0.888 -2.388812,2.0653 -3.132812,3.5293 -0.744,1.46399 -1.115234,3.03484 -1.115234,4.71484 0,1.944 0.371234,3.63617 1.115234,5.07617 0.744,1.416 1.788812,2.5205 3.132812,3.3125 1.344,0.768 2.890579,1.15234 4.642578,1.15234 0.816,0 1.704063,-0.10821 2.664063,-0.32421 0.984,-0.216 1.969125,-0.63577 2.953125,-1.25977 0.984,-0.648 1.907484,-1.58459 2.771484,-2.80859 l -1.61914,-1.51172 c -0.552,0.672 -1.152781,1.21114 -1.800782,1.61914 -0.623999,0.384 -1.247093,0.66012 -1.871093,0.82812 -0.6,0.168 -1.141094,0.25196 -1.621094,0.25196 -1.248,0 -2.244281,-0.29844 -2.988281,-0.89844 -0.744,-0.6 -1.283141,-1.41722 -1.619141,-2.44922 -0.312,-1.032 -0.46875,-2.19619 -0.46875,-3.49219 l 11.808594,-0.21484 c 0.024,-1.728 -0.203594,-3.16831 -0.683594,-4.32031 -0.456,-1.152 -1.081047,-2.06433 -1.873047,-2.73633 -0.768,-0.672 -1.631797,-1.1403 -2.591797,-1.4043 -0.96,-0.288 -1.943171,-0.43164 -2.951171,-0.43164 z m 23.255858,0 c -0.84,0 -1.74117,0.18102 -2.70117,0.54102 -0.936,0.36 -1.81095,0.85061 -2.62695,1.47461 -0.024,-0.24 -0.0483,-0.5404 -0.0723,-0.9004 0,-0.36 -0.0243,-0.65843 -0.0723,-0.89843 h -1.763667 c -0.168,0.144 -0.479547,0.29879 -0.935547,0.46679 -0.432,0.168 -1.032781,0.31164 -1.800781,0.43164 -0.768,0.12 -1.704594,0.18165 -2.808594,0.18165 v 2.73437 c 0.264,-0.024 0.648344,-0.0352 1.152344,-0.0352 0.528,-0.024 0.98514,-0.0483 1.36914,-0.0723 -0.048,0.528 -0.08537,1.06909 -0.109375,1.62109 -0.024,0.528 -0.03516,1.00746 -0.03516,1.43946 v 6.04687 c 0,0.624 -0.04853,1.18936 -0.144531,1.69336 -0.072,0.48 -0.251063,0.85123 -0.539063,1.11523 -0.288,0.264 -0.769406,0.39649 -1.441406,0.39649 v 2.33984 h 9.251956 v -2.73633 c -0.24,0 -0.56271,0.0131 -0.97071,0.0371 -0.408,0 -0.8035,0.0223 -1.1875,0.0703 0.048,-0.552 0.0834,-1.12657 0.10743,-1.72657 0.024,-0.624 0.0352,-1.1054 0.0352,-1.4414 v -6.33594 -0.89844 -0.90039 c 0.408,-0.36 0.86514,-0.67154 1.36914,-0.93554 0.528,-0.26401 1.09141,-0.39649 1.69141,-0.39649 0.816,0.024 1.4522,0.32439 1.9082,0.90039 0.456,0.576 0.683602,1.64313 0.683602,3.20313 l 0.0371,5.61523 c 0,0.624 -0.0374,1.18936 -0.10937,1.69336 -0.072,0.48 -0.251062,0.85123 -0.539062,1.11523 -0.264,0.264 -0.70803,0.39649 -1.33203,0.39649 v 2.33984 h 9.287116 v -2.73633 c -0.264,0 -0.62408,0.0131 -1.08008,0.0371 -0.456,0 -0.87577,0.0223 -1.25977,0.0703 0.048,-0.552 0.0834,-1.12657 0.10742,-1.72657 0.024,-0.624 0.0371,-1.1054 0.0371,-1.4414 v -2.41211 -2.41016 c 0,-0.648 -0.0243,-1.26189 -0.0723,-1.83789 -0.048,-0.576 -0.13196,-1.10398 -0.25196,-1.58398 0.432,-0.336 0.91146,-0.62328 1.43946,-0.86328 0.552,-0.24 1.13967,-0.34822 1.76367,-0.32422 0.816,0.024 1.46531,0.33554 1.94531,0.93554 0.504,0.6 0.76702,1.68024 0.79102,3.24024 V 291.18 c 0,0.624 -0.0354,1.18936 -0.10742,1.69336 -0.072,0.48 -0.23991,0.85123 -0.50391,1.11523 -0.24,0.264 -0.6355,0.39649 -1.1875,0.39649 v 2.33984 h 9.10742 v -2.73633 c -0.24,0 -0.60008,0.0131 -1.08008,0.0371 -0.456,0 -0.87576,0.0223 -1.25976,0.0703 0.048,-0.552 0.0834,-1.12657 0.10742,-1.72657 0.024,-0.624 0.0371,-1.1054 0.0371,-1.4414 V 285.637 c 0,-2.76 -0.50567,-4.69287 -1.51367,-5.79687 -0.984,-1.128 -2.44663,-1.69141 -4.39063,-1.69141 -0.96,0 -1.96939,0.21644 -3.02539,0.64844 -1.032,0.432 -1.97975,1.00851 -2.84375,1.72851 -0.432,-0.792 -1.00656,-1.38162 -1.726564,-1.76562 -0.72,-0.408 -1.63233,-0.61133 -2.736332,-0.61133 z m 38.699232,0 c -1.8,0 -3.38396,0.45519 -4.75196,1.36719 -1.344,0.888 -2.38686,2.0653 -3.13086,3.5293 -0.744,1.46399 -1.11718,3.03484 -1.11718,4.71484 0,1.944 0.37318,3.63617 1.11718,5.07617 0.744,1.416 1.78686,2.5205 3.13086,3.3125 1.344,0.768 2.89253,1.15234 4.64453,1.15234 0.816,0 1.70407,-0.10821 2.66407,-0.32421 0.984,-0.216 1.96717,-0.63577 2.95117,-1.25977 0.984,-0.648 1.90944,-1.58459 2.77344,-2.80859 l -1.6211,-1.51172 c -0.552,0.672 -1.15278,1.21114 -1.80078,1.61914 -0.624,0.384 -1.24709,0.66012 -1.87109,0.82812 -0.6,0.168 -1.13914,0.25196 -1.61914,0.25196 -1.248,0 -2.24428,-0.29844 -2.98829,-0.89844 -0.74399,-0.6 -1.28509,-1.41722 -1.62109,-2.44922 -0.312,-1.032 -0.4668,-2.19619 -0.4668,-3.49219 l 11.80665,-0.21484 c 0.024,-1.728 -0.2036,-3.16831 -0.6836,-4.32031 -0.456,-1.152 -1.07909,-2.06433 -1.87109,-2.73633 -0.768,-0.672 -1.6318,-1.1403 -2.5918,-1.4043 -0.96,-0.288 -1.94512,-0.43164 -2.95312,-0.43164 z m 17.42382,0 c -1.176,0 -2.19459,0.16791 -3.05859,0.50391 -0.84,0.336 -1.53784,0.79314 -2.08984,1.36914 -0.552,0.552 -0.95866,1.17509 -1.22266,1.87109 -0.264,0.672 -0.39648,1.35674 -0.39648,2.05274 0,0.96 0.19217,1.77526 0.57617,2.44726 0.384,0.648 0.88772,1.20025 1.51172,1.65625 0.648,0.432 1.34389,0.80324 2.08789,1.11524 0.768,0.312 1.52357,0.61239 2.26758,0.90039 0.912,0.336 1.66953,0.63639 2.26953,0.90039 0.624,0.264 1.09034,0.54012 1.40234,0.82812 0.336,0.288 0.50391,0.65924 0.50391,1.11524 0,0.408 -0.13054,0.75692 -0.39454,1.04492 -0.23999,0.264 -0.55349,0.45617 -0.9375,0.57617 -0.36,0.12 -0.74239,0.17969 -1.15039,0.17969 -1.008,0 -1.92032,-0.16791 -2.73632,-0.50391 -0.816,-0.36 -1.47647,-0.8414 -1.98047,-1.44141 -0.504,-0.59999 -0.79128,-1.25851 -0.86328,-1.97851 h -2.33985 l 0.14258,6.19141 h 2.73633 l -0.0723,-1.08008 c 0.552,0.408 1.32069,0.74381 2.30469,1.00781 0.984,0.264 1.99144,0.39648 3.02344,0.39648 1.128,0 2.18397,-0.20332 3.16797,-0.61132 1.008,-0.408 1.82522,-1.02189 2.44922,-1.83789 0.624,-0.816 0.93554,-1.84771 0.93554,-3.09571 0,-1.128 -0.27612,-2.07575 -0.82812,-2.84375 -0.552,-0.792 -1.30758,-1.46362 -2.26758,-2.01562 -0.936,-0.552 -2.01623,-1.03146 -3.24023,-1.43946 -0.81601,-0.288 -1.56043,-0.53985 -2.23243,-0.75586 -0.672,-0.21599 -1.19998,-0.48096 -1.58398,-0.79296 -0.384,-0.336 -0.57617,-0.78003 -0.57617,-1.33204 0,-0.696 0.2407,-1.18856 0.7207,-1.47656 0.504,-0.288 1.05625,-0.43164 1.65625,-0.43164 0.864,0 1.64384,0.16791 2.33984,0.50391 0.696,0.312 1.25941,0.76914 1.69141,1.36914 0.456,0.6 0.75639,1.32015 0.90039,2.16015 h 2.33984 v -6.37304 h -2.73632 v 1.04492 c -0.576,-0.408 -1.28305,-0.70839 -2.12305,-0.90039 -0.816,-0.216 -1.54927,-0.32422 -2.19727,-0.32422 z m 33.625,0 c -1.392,0 -2.6644,0.20333 -3.8164,0.61133 -1.152,0.384 -2.07549,0.93625 -2.77149,1.65625 -0.672,0.696 -1.00781,1.52437 -1.00781,2.48437 0,0.648 0.19217,1.21141 0.57617,1.69141 0.384,0.48 0.9343,0.73186 1.6543,0.75586 0.84,0.024 1.45194,-0.21475 1.83594,-0.71875 0.384,-0.528 0.57617,-1.03172 0.57617,-1.51172 0,-0.192 -0.0243,-0.40844 -0.0723,-0.64844 -0.048,-0.264 -0.16737,-0.5047 -0.35937,-0.7207 0.312,-0.312 0.68519,-0.55075 1.11719,-0.71875 0.432,-0.168 0.87603,-0.26506 1.33203,-0.28906 0.672,-0.024 1.18687,0.10848 1.54687,0.39648 0.384,0.288 0.64897,0.6835 0.79297,1.1875 0.168,0.504 0.25195,1.06741 0.25195,1.69141 v 1.87304 c -1.2,0.048 -2.40156,0.21591 -3.60156,0.50391 -1.176,0.264 -2.25428,0.6595 -3.23828,1.1875 -0.96,0.504 -1.7418,1.16447 -2.3418,1.98047 -0.576,0.816 -0.86328,1.79917 -0.86328,2.95117 0,1.368 0.43288,2.50792 1.29688,3.41992 0.864,0.912 2.06361,1.36914 3.59961,1.36914 0.936,0 1.85948,-0.1679 2.77148,-0.5039 0.912,-0.336 1.7758,-0.91252 2.5918,-1.72852 0.024,0.312 0.0371,0.58813 0.0371,0.82813 0.024,0.216 0.0594,0.49212 0.10742,0.82812 h 6.80469 v -2.73633 c -0.24,0 -0.58893,0.0131 -1.04493,0.0371 -0.456,0 -0.88692,0.0223 -1.29492,0.0703 0.048,-0.552 0.0834,-1.12657 0.10742,-1.72657 0.024,-0.624 0.0352,-1.1054 0.0352,-1.4414 v -2.08789 c 0.024,-0.576 0.0371,-1.15057 0.0371,-1.72657 v -2.08789 c 0,-2.4 -0.58767,-4.1407 -1.76367,-5.2207 -1.152,-1.104 -2.78449,-1.65625 -4.89649,-1.65625 z m 23.32813,0 c -0.576,0 -1.15252,0.11938 -1.72852,0.35938 -0.552,0.216 -1.1154,0.56492 -1.6914,1.04492 -0.576,0.48 -1.18794,1.1162 -1.83594,1.9082 0,-0.504 -0.0131,-1.08052 -0.0371,-1.72851 -0.024,-0.67201 -0.0594,-1.12719 -0.10742,-1.36719 h -1.76367 c -0.24,0.24 -0.75683,0.47875 -1.54883,0.71875 -0.768,0.24 -1.62064,0.36133 -2.55664,0.36133 h -1.43946 v 2.73437 c 0.264,-0.024 0.64835,-0.0352 1.15235,-0.0352 0.528,-0.024 0.98319,-0.0483 1.36719,-0.0723 -0.048,0.528 -0.0834,1.06909 -0.10743,1.62109 -0.024,0.528 -0.0351,1.00746 -0.0351,1.43946 v 6.04687 c 0,0.624 -0.0485,1.18936 -0.14453,1.69336 -0.072,0.48 -0.25107,0.85123 -0.53907,1.11523 -0.288,0.264 -0.7694,0.39649 -1.4414,0.39649 v 2.33984 h 9.43164 v -2.73633 c -0.24,0 -0.60008,0.0131 -1.08008,0.0371 -0.456,0 -0.87577,0.0223 -1.25977,0.0703 0.048,-0.552 0.0854,-1.12657 0.10938,-1.72657 0.024,-0.624 0.0352,-1.1054 0.0352,-1.4414 v -5.86719 c 0.144,-0.456 0.39586,-0.94856 0.75586,-1.47656 0.38399,-0.552 0.81687,-1.0203 1.29687,-1.4043 0.48,-0.408 0.95945,-0.61133 1.43945,-0.61133 0.072,0.816 0.35928,1.36825 0.86328,1.65625 0.504,0.288 0.99657,0.43164 1.47657,0.43164 0.624,0 1.11656,-0.13248 1.47656,-0.39648 0.36,-0.264 0.62301,-0.5867 0.79101,-0.9707 0.168,-0.408 0.25196,-0.79235 0.25196,-1.15235 0,-1.056 -0.31155,-1.81158 -0.93555,-2.26758 -0.624,-0.48 -1.35531,-0.7207 -2.19531,-0.7207 z m 22.93164,0 c -1.8,0 -3.38395,0.45519 -4.75195,1.36719 -1.344,0.888 -2.38882,2.0653 -3.13282,3.5293 -0.744,1.46399 -1.11523,3.03484 -1.11523,4.71484 0,1.944 0.37123,3.63617 1.11523,5.07617 0.744,1.416 1.78882,2.5205 3.13282,3.3125 1.344,0.768 2.89253,1.15234 4.64453,1.15234 0.816,0 1.70406,-0.10821 2.66406,-0.32421 0.984,-0.216 1.96717,-0.63577 2.95117,-1.25977 0.984,-0.648 1.90749,-1.58459 2.77149,-2.80859 l -1.61914,-1.51172 c -0.552,0.672 -1.15279,1.21114 -1.80079,1.61914 -0.624,0.384 -1.24709,0.66012 -1.87109,0.82812 -0.6,0.168 -1.14109,0.25196 -1.62109,0.25196 -1.248,0 -2.24428,-0.29844 -2.98828,-0.89844 -0.744,-0.6 -1.28314,-1.41722 -1.61915,-2.44922 -0.312,-1.032 -0.46874,-2.19619 -0.46874,-3.49219 l 11.80859,-0.21484 c 0.024,-1.728 -0.20359,-3.16831 -0.68359,-4.32031 -0.456,-1.152 -1.08105,-2.06433 -1.87305,-2.73633 -0.768,-0.672 -1.6318,-1.1403 -2.5918,-1.4043 -0.96,-0.288 -1.94317,-0.43164 -2.95117,-0.43164 z m 28.83594,0 c -1.8,0 -3.38396,0.45519 -4.75196,1.36719 -1.344,0.888 -2.38881,2.0653 -3.13281,3.5293 -0.744,1.46399 -1.11523,3.03484 -1.11523,4.71484 0,1.944 0.37123,3.63617 1.11523,5.07617 0.744,1.416 1.78881,2.5205 3.13281,3.3125 1.344,0.768 2.89253,1.15234 4.64454,1.15234 0.816,0 1.70406,-0.10821 2.66406,-0.32421 0.984,-0.216 1.96717,-0.63577 2.95117,-1.25977 0.984,-0.648 1.90748,-1.58459 2.77148,-2.80859 l -1.61914,-1.51172 c -0.552,0.672 -1.15278,1.21114 -1.80078,1.61914 -0.624,0.384 -1.24709,0.66012 -1.87109,0.82812 -0.6,0.168 -1.1411,0.25196 -1.6211,0.25196 -1.248,0 -2.24428,-0.29844 -2.98828,-0.89844 -0.744,-0.6 -1.28314,-1.41722 -1.61914,-2.44922 -0.312,-1.032 -0.46875,-2.19619 -0.46875,-3.49219 l 11.8086,-0.21484 c 0.024,-1.728 -0.2036,-3.16831 -0.6836,-4.32031 -0.456,-1.152 -1.08104,-2.06433 -1.87304,-2.73633 -0.768,-0.672 -1.6318,-1.1403 -2.5918,-1.4043 -0.96,-0.288 -1.94317,-0.43164 -2.95117,-0.43164 z m 17.42382,0 c -1.176,0 -2.19654,0.16791 -3.06054,0.50391 -0.84,0.336 -1.53589,0.79314 -2.08789,1.36914 -0.552,0.552 -0.95866,1.17509 -1.22266,1.87109 -0.264,0.672 -0.39648,1.35674 -0.39648,2.05274 0,0.96 0.19217,1.77526 0.57617,2.44726 0.384,0.648 0.88772,1.20025 1.51172,1.65625 0.648,0.432 1.34389,0.80324 2.08789,1.11524 0.768,0.312 1.52358,0.61239 2.26758,0.90039 0.912,0.336 1.66757,0.63639 2.26757,0.90039 0.624,0.264 1.0923,0.54012 1.4043,0.82812 0.336,0.288 0.50391,0.65924 0.50391,1.11524 0,0.408 -0.13249,0.75692 -0.39649,1.04492 -0.24,0.264 -0.55154,0.45617 -0.93554,0.57617 -0.36,0.12 -0.74435,0.17969 -1.15235,0.17969 -1.008,0 -1.91837,-0.16791 -2.73437,-0.50391 -0.816,-0.36 -1.47647,-0.8414 -1.98047,-1.44141 -0.504,-0.59999 -0.79324,-1.25851 -0.86524,-1.97851 h -2.33984 l 0.14453,6.19141 h 2.73633 l -0.0723,-1.08008 c 0.552,0.408 1.32069,0.74381 2.30469,1.00781 0.984,0.264 1.99144,0.39648 3.02344,0.39648 1.128,0 2.18397,-0.20332 3.16797,-0.61132 1.008,-0.408 1.82326,-1.02189 2.44726,-1.83789 0.624,-0.816 0.9375,-1.84771 0.9375,-3.09571 0,-1.128 -0.27612,-2.07575 -0.82812,-2.84375 -0.552,-0.792 -1.30953,-1.46362 -2.26953,-2.01562 -0.936,-0.552 -2.01428,-1.03146 -3.23828,-1.43946 -0.816,-0.288 -1.56043,-0.53985 -2.23243,-0.75586 -0.672,-0.21599 -1.19998,-0.48096 -1.58398,-0.79296 -0.384,-0.336 -0.57617,-0.78003 -0.57617,-1.33204 0,-0.696 0.2407,-1.18856 0.7207,-1.47656 0.504,-0.288 1.0543,-0.43164 1.6543,-0.43164 0.864,0 1.6458,0.16791 2.34179,0.50391 0.69601,0.312 1.25941,0.76914 1.69141,1.36914 0.456,0.6 0.75639,1.32015 0.90039,2.16015 h 2.33985 v -6.37304 h -2.73633 v 1.04492 c -0.576,-0.408 -1.285,-0.70839 -2.125,-0.90039 -0.816,-0.216 -1.54732,-0.32422 -2.19532,-0.32422 z m 34.27149,0 c -1.8,0 -3.38395,0.45519 -4.75195,1.36719 -1.344,0.888 -2.38686,2.0653 -3.13086,3.5293 -0.744,1.46399 -1.11719,3.03484 -1.11719,4.71484 0,1.944 0.37319,3.63617 1.11719,5.07617 0.744,1.416 1.78686,2.5205 3.13086,3.3125 1.344,0.768 2.89253,1.15234 4.64453,1.15234 0.816,0 1.70406,-0.10821 2.66406,-0.32421 0.984,-0.216 1.96717,-0.63577 2.95117,-1.25977 0.984,-0.648 1.90944,-1.58459 2.77344,-2.80859 l -1.62109,-1.51172 c -0.552,0.672 -1.15083,1.21114 -1.79883,1.61914 -0.624,0.384 -1.24905,0.66012 -1.87305,0.82812 -0.6,0.168 -1.13914,0.25196 -1.61914,0.25196 -1.248,0 -2.24428,-0.29844 -2.98828,-0.89844 -0.744,-0.6 -1.28509,-1.41722 -1.62109,-2.44922 -0.312,-1.032 -0.4668,-2.19619 -0.4668,-3.49219 l 11.80664,-0.21484 c 0.024,-1.728 -0.20359,-3.16831 -0.6836,-4.32031 -0.45599,-1.152 -1.07909,-2.06433 -1.87109,-2.73633 -0.768,-0.672 -1.6318,-1.1403 -2.5918,-1.4043 -0.96,-0.288 -1.94512,-0.43164 -2.95312,-0.43164 z m 46.36914,0 c -1.392,0 -2.66441,0.26497 -3.81641,0.79297 -1.128,0.528 -2.11312,1.2462 -2.95312,2.1582 -0.816,0.912 -1.45025,1.96797 -1.90625,3.16797 -0.456,1.2 -0.68555,2.48552 -0.68555,3.85352 0,1.944 0.39746,3.59879 1.18946,4.96679 0.81599,1.368 1.89623,2.41282 3.24023,3.13282 1.344,0.72 2.81973,1.08007 4.42773,1.08007 0.888,0 1.78722,-0.11937 2.69922,-0.35937 0.936,-0.216 1.8726,-0.63772 2.8086,-1.26172 0.936,-0.624 1.83522,-1.53437 2.69922,-2.73437 l -1.65626,-1.6211 c -0.67199,0.864 -1.48726,1.54874 -2.44726,2.05274 -0.96,0.504 -1.94513,0.74275 -2.95313,0.71875 -1.176,-0.048 -2.11064,-0.40808 -2.80664,-1.08008 -0.696,-0.672 -1.19971,-1.52269 -1.51171,-2.55469 -0.28801,-1.056 -0.4336,-2.18476 -0.4336,-3.38477 0,-2.04 0.37319,-3.59968 1.11719,-4.67968 0.744,-1.08 1.69175,-1.65652 2.84375,-1.72852 0.216,-0.024 0.49212,2.7e-4 0.82812,0.0723 0.36,0.048 0.70697,0.15622 1.04297,0.32422 0.336,0.168 0.58981,0.43296 0.75781,0.79297 -0.14399,0.23999 -0.25221,0.51417 -0.32421,0.82617 -0.072,0.288 -0.10938,0.54181 -0.10938,0.75781 0,0.504 0.18102,1.03198 0.54102,1.58398 0.36,0.528 0.9962,0.77986 1.9082,0.75586 0.768,-0.024 1.35567,-0.30012 1.76367,-0.82812 0.432,-0.552 0.64844,-1.17705 0.64844,-1.87305 0,-0.84 -0.26497,-1.631 -0.79297,-2.375 -0.504,-0.768 -1.27073,-1.37994 -2.30273,-1.83594 -1.008,-0.48 -2.28041,-0.7207 -3.81641,-0.7207 z m 17.63867,0 c -1.392,0 -2.66245,0.20333 -3.81445,0.61133 -1.152,0.384 -2.07744,0.93625 -2.77344,1.65625 -0.672,0.696 -1.00781,1.52437 -1.00781,2.48437 0,0.648 0.19217,1.21141 0.57617,1.69141 0.384,0.48 0.93625,0.73186 1.65625,0.75586 0.84,0.024 1.45194,-0.21475 1.83594,-0.71875 0.384,-0.528 0.57617,-1.03172 0.57617,-1.51172 0,-0.192 -0.0243,-0.40844 -0.0723,-0.64844 -0.048,-0.264 -0.16737,-0.5047 -0.35937,-0.7207 0.312,-0.312 0.68323,-0.55075 1.11523,-0.71875 0.432,-0.168 0.87603,-0.26506 1.33204,-0.28906 0.67199,-0.024 1.18882,0.10848 1.54882,0.39648 0.384,0.288 0.64702,0.6835 0.79102,1.1875 0.168,0.504 0.25195,1.06741 0.25195,1.69141 v 1.87304 c -1.2,0.048 -2.39961,0.21591 -3.59961,0.50391 -1.176,0.264 -2.25623,0.6595 -3.24023,1.1875 -0.96,0.504 -1.73985,1.16447 -2.33985,1.98047 -0.576,0.816 -0.86328,1.79917 -0.86328,2.95117 0,1.368 0.43093,2.50792 1.29492,3.41992 0.86401,0.912 2.06361,1.36914 3.59961,1.36914 0.936,0 1.86144,-0.1679 2.77344,-0.5039 0.912,-0.336 1.7758,-0.91252 2.5918,-1.72852 0.024,0.312 0.0351,0.58813 0.0351,0.82813 0.024,0.216 0.0614,0.49212 0.10938,0.82812 h 6.80273 v -2.73633 c -0.24,0 -0.58696,0.0131 -1.04296,0.0371 -0.456,0 -0.88888,0.0223 -1.29688,0.0703 0.048,-0.552 0.0834,-1.12657 0.10742,-1.72657 0.024,-0.624 0.0371,-1.1054 0.0371,-1.4414 v -2.08789 c 0.024,-0.576 0.0352,-1.15057 0.0352,-1.72657 v -2.08789 c 0,-2.4 -0.58767,-4.1407 -1.76367,-5.2207 -1.152,-1.104 -2.78449,-1.65625 -4.89649,-1.65625 z m -33.11914,0.2168 c -0.168,0.144 -0.47955,0.29879 -0.93555,0.46679 -0.432,0.168 -1.03278,0.31164 -1.80078,0.43164 -0.768,0.12 -1.70459,0.18165 -2.80859,0.18165 v 2.73437 c 0.264,-0.024 0.64834,-0.0352 1.15234,-0.0352 0.528,-0.024 0.98514,-0.0483 1.36914,-0.0723 -0.048,0.528 -0.0854,1.08025 -0.10937,1.65625 -0.024,0.552 -0.0352,1.04456 -0.0352,1.47656 v 5.97461 c 0,0.624 -0.0485,1.18936 -0.14453,1.69336 -0.072,0.48 -0.25106,0.85123 -0.53906,1.11523 -0.288,0.264 -0.76941,0.39649 -1.44141,0.39649 v 2.33984 h 9.4336 v -2.73633 c -0.24,0 -0.60008,0.0131 -1.08008,0.0371 -0.456,0 -0.87577,0.0223 -1.25977,0.0703 0.048,-0.552 0.0834,-1.12657 0.10742,-1.72657 0.024,-0.624 0.0352,-1.1054 0.0352,-1.4414 v -12.5625 z m -270.503913,2.30273 c 0.576,0 1.079719,0.13249 1.511719,0.39649 0.432,0.264 0.767812,0.69687 1.007812,1.29687 0.264,0.576 0.407641,1.367 0.431641,2.375 h -6.623047 c 0.192,-1.2 0.5875,-2.17201 1.1875,-2.91601 0.6,-0.768 1.428375,-1.15235 2.484375,-1.15235 z m 61.955083,0 c 0.576,0 1.07972,0.13249 1.51172,0.39649 0.432,0.264 0.76977,0.69687 1.00977,1.29687 0.264,0.576 0.40764,1.367 0.43164,2.375 h -6.625 c 0.192,-1.2 0.58945,-2.17201 1.18945,-2.91601 0.6,-0.768 1.42642,-1.15235 2.48242,-1.15235 z m 97.3086,0 c 0.576,0 1.07972,0.13249 1.51172,0.39649 0.432,0.264 0.76781,0.69687 1.00781,1.29687 0.264,0.576 0.40764,1.367 0.43164,2.375 h -6.62305 c 0.192,-1.2 0.5875,-2.17201 1.1875,-2.91601 0.6,-0.768 1.42838,-1.15235 2.48438,-1.15235 z m 28.83593,0 c 0.576,0 1.07972,0.13249 1.51172,0.39649 0.432,0.264 0.76782,0.69687 1.00782,1.29687 0.264,0.576 0.40959,1.367 0.43359,2.375 h -6.625 c 0.192,-1.2 0.5875,-2.17201 1.1875,-2.91601 0.6,-0.768 1.42837,-1.15235 2.48437,-1.15235 z m 51.69532,0 c 0.576,0 1.08167,0.13249 1.51367,0.39649 0.432,0.264 0.76781,0.69687 1.00781,1.29687 0.264,0.576 0.40764,1.367 0.43164,2.375 h -6.625 c 0.192,-1.2 0.58945,-2.17201 1.18946,-2.91601 0.59999,-0.768 1.42642,-1.15235 2.48242,-1.15235 z m -262.94337,4.42774 h 1.548828 c 0.768,0 1.499312,0.13248 2.195312,0.39648 0.72,0.264 1.307672,0.72114 1.763672,1.36914 0.456,0.624 0.683594,1.4878 0.683594,2.5918 0,1.32 -0.335813,2.41139 -1.007813,3.27539 -0.672,0.864 -1.739125,1.3323 -3.203125,1.4043 -0.36,0 -0.733187,0.0111 -1.117187,0.0351 H 50.14087 48.916261 c 0.048,-0.312 0.08342,-0.75603 0.107422,-1.33203 0.024,-0.576 0.03711,-1.18794 0.03711,-1.83594 v -5.86718 c 0.48,-0.024 0.935187,-0.0371 1.367188,-0.0371 z m 137.5918,3.34961 v 1.33203 1.29492 0.7207 0.6836 c -0.384,0.384 -0.81492,0.69554 -1.29492,0.93554 -0.48,0.24 -0.99683,0.36133 -1.54883,0.36133 -0.528,0 -0.99629,-0.14559 -1.40429,-0.43359 -0.408,-0.288 -0.62444,-0.76746 -0.64844,-1.43946 0,-0.504 0.12133,-0.95918 0.36133,-1.36718 0.264,-0.408 0.61097,-0.75693 1.04297,-1.04493 0.456,-0.288 0.98398,-0.51559 1.58398,-0.68359 0.6,-0.168 1.2362,-0.28737 1.9082,-0.35937 z m 190.80079,0 v 1.33203 1.29492 0.7207 0.6836 c -0.384,0.384 -0.81688,0.69554 -1.29688,0.93554 -0.48,0.24 -0.99487,0.36133 -1.54687,0.36133 -0.528,0 -0.9963,-0.14559 -1.4043,-0.43359 -0.408,-0.288 -0.62444,-0.76746 -0.64844,-1.43946 0,-0.504 0.11938,-0.95918 0.35938,-1.36718 0.264,-0.408 0.61292,-0.75693 1.04492,-1.04493 0.456,-0.288 0.98398,-0.51559 1.58398,-0.68359 0.6,-0.168 1.23621,-0.28737 1.90821,-0.35937 z" /></g></svg>
